<?xml version="1.0" encoding="UTF-8" standalone="no"?>
<svg width="15px" height="105px" viewBox="0 0 15 105" version="1.1" xmlns="http://www.w3.org/2000/svg" xmlns:xlink="http://www.w3.org/1999/xlink">
    <!-- Generator: Sketch 3.8.2 (29753) - http://www.bohemiancoding.com/sketch -->
    <title>arrow</title>
    <desc>Created with Sketch.</desc>
    <defs></defs>
    <g id="Page-1" stroke="none" stroke-width="1" fill="none" fill-rule="evenodd">
        <g id="Landing-White" transform="translate(-712.000000, -592.000000)" stroke="#C09900" fill="#C09900">
            <path d="M722.563386,691.947851 C721.608679,691.444581 720.633178,690.750549 719.550694,690.619458 C719.543763,690.557679 719.517545,690.500722 719.480477,690.448286 C719.469327,690.075203 719.47445,689.700613 719.46993,689.326927 C721.112038,690.457025 722.8768,691.407513 724.632822,692.349563 C724.673204,692.405014 724.724737,692.454436 724.801282,692.484572 C724.890786,692.520133 724.980591,692.555392 725.070396,692.590651 C725.077327,692.830232 725.090889,693.066799 725.126148,693.298243 C724.271793,692.848313 723.417439,692.398082 722.563386,691.947851 L722.563386,691.947851 Z M719.234568,688.943296 C719.231554,688.501804 719.293634,688.05971 719.303881,687.617615 C719.3081,687.604657 719.232157,687.591698 719.236075,687.57874 C719.264101,687.487729 719.148379,687.41028 719.148379,687.343981 L719.148379,687.322886 C720.962865,688.750426 722.725517,689.967316 724.592741,691.10525 C724.590933,691.3159 724.591837,691.526249 724.591837,691.736598 L724.591837,691.753173 C722.777351,690.902736 721.093655,689.89499 719.234568,688.943296 L719.234568,688.943296 Z M718.705983,690.499818 C717.237458,691.786624 715.904243,693.189151 714.680121,694.702579 C714.58459,693.909702 714.508346,693.115619 714.431499,692.321537 C716.059444,691.095305 717.429725,689.578863 718.868416,688.141981 C718.82713,688.930036 718.778008,689.716886 718.705983,690.499818 L718.705983,690.499818 Z M713.91738,682.237142 C715.576967,681.399061 717.067491,680.29729 718.526674,679.151521 C718.63215,679.146096 718.73853,679.102701 718.809952,679.003855 C718.831952,678.973417 718.853951,678.94298 718.87595,678.912543 C718.94014,678.978842 719.00222,679.04725 719.067313,679.112344 C719.052547,679.95826 719.040191,680.809903 719.028739,681.659737 C718.896744,681.585904 718.7319,681.581082 718.599905,681.72031 C717.221787,683.17437 715.57757,684.22069 713.967707,685.367966 C713.940584,684.532296 713.917982,683.696325 713.911352,682.859148 C713.909846,682.651812 713.917078,682.444477 713.91738,682.237142 L713.91738,682.237142 Z M713.938776,679.932042 C713.952639,679.27538 715.426588,678.650059 715.886463,678.290537 C717.082861,677.354514 718.397391,676.293728 719.143557,674.937309 C719.122764,676.135816 719.09986,677.33372 719.077258,678.531022 C719.068519,678.528008 719.060081,678.524392 719.051643,678.521077 C719.019397,678.24473 718.616781,678.047038 718.371776,678.279989 C717.025,679.558658 715.489874,680.56761 713.923708,681.541604 C713.928831,681.005184 713.927626,680.468462 713.938776,679.932042 L713.938776,679.932042 Z M714.353447,691.573261 C715.122517,690.839451 715.852108,690.061039 716.587124,689.294079 C717.005411,688.857107 717.431232,688.427369 717.856149,687.996726 C718.160522,687.687832 718.495333,687.254477 718.856964,686.895256 C718.88047,686.914845 718.903977,686.934433 718.926578,686.954624 C718.924168,687.016403 718.919949,687.077579 718.917538,687.139056 C718.830143,687.15985 718.74727,687.20867 718.6876,687.29275 C717.48397,688.989705 715.899422,690.350645 714.371227,691.746241 C714.366104,691.688682 714.35857,691.631122 714.353447,691.573261 L714.353447,691.573261 Z M719.010356,682.884763 C718.751187,683.002595 718.613165,683.276229 718.416678,683.51792 C717.822698,684.247813 717.199487,684.950583 716.538304,685.619903 C715.819863,686.347686 714.862142,686.956131 714.06595,687.669751 C714.0328,687.060703 714.001459,686.451655 713.978857,685.842005 C715.838547,684.995787 717.45293,683.640573 719.018493,682.350754 C719.016082,682.528858 719.012767,682.706961 719.010356,682.884763 L719.010356,682.884763 Z M718.820801,684.600705 L718.981125,684.736316 C718.973892,685.099153 718.966358,685.46199 718.959427,685.824827 C718.147263,686.385959 717.448108,687.533536 716.823993,688.247457 C715.995857,689.194329 715.124626,690.108352 714.313969,691.071196 C714.248875,690.309058 714.184384,689.546919 714.13466,688.783576 C715.012219,687.998232 715.903339,687.219218 716.726955,686.37963 C717.214253,685.883291 717.681662,685.351693 718.102059,684.797492 C718.345256,684.475942 718.576097,684.149569 718.802418,683.815964 C718.815377,683.796677 718.916031,683.579096 719.002822,683.366637 C718.997398,683.749063 718.992576,684.130885 718.985645,684.514817 C718.961536,684.503366 718.938332,684.490407 718.914524,684.478955 C718.840088,684.443395 718.749379,684.540131 718.820801,684.600705 L718.820801,684.600705 Z M719.148379,686.676168 C719.148379,686.66773 719.380125,686.659292 719.440999,686.650854 C719.462396,686.652059 719.522065,686.6168 719.50097,686.613485 C719.439191,686.591486 719.404535,686.569185 719.342756,686.546885 C719.343359,686.526995 719.35692,686.507105 719.357824,686.487517 L719.403932,686.484202 C719.693539,686.460093 719.879176,686.179226 719.73603,685.910413 C719.721565,685.883291 719.708607,685.856169 719.694141,685.829046 C719.634171,685.716338 719.522668,685.659984 719.404233,685.647929 C719.411767,685.477661 719.418096,685.307694 719.425931,685.137727 C719.884299,685.574096 720.555427,685.937837 721.040917,686.274757 C722.009487,686.94709 723.007891,687.575124 723.977968,688.244443 C724.376968,688.519886 724.790734,687.817417 724.357379,687.595917 C722.673683,686.735837 721.118367,685.616286 719.442807,684.74596 C719.480779,683.957001 719.522668,683.168644 719.560639,682.38089 C721.200939,683.596876 722.998248,684.75048 724.626192,686.044518 C724.667478,686.120762 724.70997,686.18013 724.756681,686.223827 C724.771749,686.696359 724.787419,687.169494 724.801282,687.638108 C724.825089,688.445751 724.818158,689.253395 724.807611,690.060737 C724.802789,690.059231 724.800077,690.058025 724.795255,690.056217 C724.771749,690.04808 724.639753,690.049587 724.616549,690.046574 C722.782776,688.992116 720.962865,687.808677 719.148379,686.680688 L719.148379,686.676168 Z M719.664307,679.442936 C719.664909,679.418525 719.664909,679.393814 719.665512,679.369404 C721.330222,680.374739 723.198953,681.14622 724.662958,682.410122 C724.667177,682.41404 724.6723,682.41404 724.676519,682.417656 C724.678629,683.331981 724.699422,684.249319 724.725942,685.163644 C723.652499,684.425313 722.567906,683.706571 721.450164,683.033334 C721.104203,682.825395 720.273354,682.196458 719.582337,681.875811 C719.619103,681.063647 719.651348,680.252086 719.664307,679.442936 L719.664307,679.442936 Z M722.81472,599.584156 C722.470868,599.351808 722.073978,599.197512 721.696977,599.010669 C721.096367,598.712925 720.455978,598.301268 719.809562,598.036674 C719.754715,596.861071 719.684498,595.687577 719.597405,594.516493 C720.49184,596.314405 721.545393,598.020702 722.81472,599.584156 L722.81472,599.584156 Z M721.689443,677.155918 C722.648972,678.031367 723.628391,679.021635 724.741311,679.701201 C724.710271,680.26625 724.695203,680.834915 724.686163,681.405088 C723.957475,680.867462 722.948825,680.47027 722.233397,680.076393 C721.398932,679.61682 720.55392,679.140069 719.673046,678.76337 C719.689922,677.604642 719.704086,676.446216 719.717647,675.287488 C720.352311,675.933603 721.022836,676.547473 721.689443,677.155918 L721.689443,677.155918 Z M718.954605,597.831449 C718.3329,597.840188 717.576186,598.153602 716.88095,598.49233 C717.572269,597.264591 718.265396,596.038058 719.028739,594.854317 C718.996193,595.84579 718.97118,596.837866 718.954605,597.831449 L718.954605,597.831449 Z M726.16855,693.915428 C725.591447,692.893216 725.840972,691.122427 725.803604,689.980274 C725.765331,688.809191 725.727059,687.638108 725.688786,686.467326 C725.612843,684.143241 725.691498,681.748035 725.395864,679.441429 C725.376276,679.288338 725.283156,679.1913 725.173461,679.152124 C724.265465,678.242018 723.147421,677.511221 722.158057,676.687304 C721.336852,676.003217 720.543071,675.285078 719.726688,674.594964 C719.756523,672.028586 719.785755,669.462208 719.831561,666.896433 C719.946982,660.424133 720.112428,605.49442 719.853862,598.998916 C720.824842,599.447941 721.82837,599.92861 722.705025,600.504508 C723.08956,600.757047 723.476204,600.204354 723.180269,599.888529 C723.121202,599.825545 723.052492,599.776122 722.986796,599.72248 C723.304128,599.84212 723.742003,599.436188 723.494888,599.116144 C722.064636,597.26218 720.836294,595.326849 719.850547,593.199853 C719.717949,592.913863 719.28821,592.953643 719.144763,593.199853 C718.04028,595.090885 716.885169,596.950876 715.978076,598.945876 C715.826794,599.021518 715.684251,599.090529 715.556776,599.14628 C715.338591,599.242113 715.48686,599.579635 715.704442,599.53624 C715.699017,599.548897 715.692388,599.560951 715.686963,599.573608 C715.588117,599.810176 715.958187,600.016908 716.117305,599.824038 C716.206206,599.716453 716.295408,599.608867 716.384008,599.500981 C716.423185,599.453969 716.418965,599.39882 716.390939,599.359944 C716.40661,599.332219 716.421979,599.304796 716.43765,599.27707 C717.238664,598.961848 718.200905,598.556218 718.941345,598.652352 C718.858471,605.068599 719.054958,659.903986 719.173995,666.298837 C719.222212,668.900775 719.199008,671.50633 719.157119,674.110679 C719.154406,674.10857 719.151694,674.105858 719.148982,674.103748 C718.940742,673.936795 718.714421,674.220374 718.877156,674.375876 C718.87595,674.37678 718.875046,674.377684 718.873841,674.378588 C718.926277,674.439463 718.981426,674.497926 719.036273,674.556993 C717.618979,675.596081 716.458444,676.933213 715.001069,677.948192 C714.529742,678.276373 713.462929,678.646744 713.176336,679.136453 C712.843937,679.703913 713.084422,681.039539 713.0796,681.688366 C713.078395,681.831813 713.085025,681.97526 713.084422,682.118707 C713.056697,682.185006 713.059409,682.260045 713.086833,682.326344 C713.08623,684.385233 713.160364,686.443217 713.289949,688.497887 C713.209486,688.603965 713.126914,688.708838 713.057601,688.821848 C712.901195,689.076798 713.107627,689.319996 713.343591,689.340789 C713.417726,690.37837 713.507832,691.414746 713.611801,692.449916 C713.607883,692.453834 713.605774,692.455943 713.601555,692.459861 C713.505723,692.554488 713.552132,692.697935 713.645252,692.758508 C713.74681,693.740338 713.858615,694.721263 713.987898,695.699476 C714.041841,696.108421 714.486648,696.235896 714.739489,695.903195 C715.921421,694.348481 717.236855,692.926667 718.667409,691.608219 C718.847321,691.93881 719.534421,691.880648 719.510613,691.389733 C719.501874,691.203794 719.497354,691.017253 719.491628,690.830711 C719.507901,690.806301 719.524476,690.782795 719.533517,690.757481 C720.222123,691.562111 721.310634,692.012041 722.222849,692.530379 C723.356263,693.174083 724.489375,693.817486 725.622185,694.461491 C725.972667,694.66069 726.365941,694.265005 726.16855,693.915428 L726.16855,693.915428 Z" id="arrow" transform="translate(719.610733, 644.546540) scale(1, -1) translate(-719.610733, -644.546540) "></path>
        </g>
    </g>
</svg>