<?xml version="1.0" encoding="UTF-8" standalone="no"?>
<svg width="26px" height="26px" viewBox="0 0 26 26" version="1.1" xmlns="http://www.w3.org/2000/svg" xmlns:xlink="http://www.w3.org/1999/xlink">
    <!-- Generator: Sketch 3.8.2 (29753) - http://www.bohemiancoding.com/sketch -->
    <title>cruz</title>
    <desc>Created with Sketch.</desc>
    <defs></defs>
    <g id="Page-1" stroke="none" stroke-width="1" fill="none" fill-rule="evenodd">
        <g id="Landing-White" transform="translate(-707.000000, -458.000000)" fill="#C09900">
            <g id="Group-5" transform="translate(597.000000, 458.000000)">
                <path d="M134.457204,20.3610691 C131.244778,17.9650243 128.342643,15.1889972 125.516837,12.3200488 C128.042308,9.86260942 130.572757,7.41014799 133.148007,5.01742176 C135.520822,2.81219766 132.565589,0.183849284 130.390233,2.42889685 C127.995847,4.90127 125.571594,7.39355489 123.157297,9.90409219 C119.903388,6.53071325 116.669391,3.13410396 113.098554,0.149003756 C112.446445,-0.395250199 111.338026,0.676664604 111.867346,1.35200412 C114.757865,5.03733349 118.081465,8.3908007 121.375197,11.7674983 C117.485772,15.8626774 113.679313,20.0408221 110.221309,24.4214027 C109.517762,25.3124527 110.642774,26.3528406 111.485704,25.6061507 C115.648915,21.9158434 119.656151,18.0280781 123.65509,14.1320162 C126.439414,17.045766 129.129156,20.0325256 131.425643,23.322939 C132.928978,25.4767244 136.743734,22.0668406 134.457204,20.3610691" id="cruz"></path>
            </g>
        </g>
    </g>
</svg>