<?xml version="1.0" encoding="UTF-8" standalone="no"?>
<svg width="192px" height="196px" viewBox="0 0 192 196" version="1.1" xmlns="http://www.w3.org/2000/svg" xmlns:xlink="http://www.w3.org/1999/xlink">
    <!-- Generator: Sketch 3.8.2 (29753) - http://www.bohemiancoding.com/sketch -->
    <title>frame</title>
    <desc>Created with Sketch.</desc>
    <defs></defs>
    <g id="Page-1" stroke="none" stroke-width="1" fill="none" fill-rule="evenodd">
        <g id="Landing-White" transform="translate(-224.000000, -861.000000)" fill="#C09900">
            <path d="M415.861092,956.269281 C415.768657,943.441873 415.791766,930.616565 415.646812,917.789157 C415.510261,905.743242 416.348475,892.854911 413.726692,881.03378 C413.665769,880.760677 413.308635,880.718662 413.138472,880.897229 C412.945199,880.781685 412.722516,880.699755 412.443111,880.693452 C408.913788,880.638832 405.382364,880.325814 401.853041,880.281698 C401.926569,876.059115 401.953879,871.828129 401.52952,867.622353 C401.506411,867.40177 401.229108,864.099332 400.208125,864.685452 C399.716541,864.966957 399.432934,865.523666 399.254367,866.177011 C386.931148,866.384989 374.465075,865.050989 362.196477,863.962781 C348.9195,862.784239 335.547988,862.51954 322.243701,861.717039 C308.926809,860.914538 296.021672,860.59942 282.698478,861.767458 C269.228229,862.948101 256.062594,864.445962 242.518817,863.439685 C241.997822,863.401871 241.796147,863.950176 241.957907,864.343023 C241.80665,864.538397 241.718417,864.800995 241.768836,865.141323 C242.094458,867.34715 242.252017,869.557178 242.428484,871.775609 C242.571337,873.601194 243.363334,876.487676 242.924269,878.477121 C240.315091,878.649386 237.716417,879.359452 235.10934,879.613647 C232.084206,879.909858 228.800675,879.418274 225.884782,880.275396 C225.340678,880.435055 225.254546,881.159827 225.729324,881.456038 C225.82386,881.512759 225.918395,881.571581 226.01083,881.630403 C224.859598,906.413393 227.804902,930.946389 225.363787,955.762991 C222.80923,981.71822 224.189447,1006.76171 226.662074,1032.66021 C226.819633,1034.29673 229.3994,1034.29673 229.225034,1032.66021 C226.4667,1006.87935 225.057072,981.604777 227.727173,955.762991 C230.218707,931.633346 231.674553,906.598262 228.456146,882.449711 C230.624159,882.949698 233.006452,882.949698 235.10934,882.949698 C238.361359,882.951799 241.932698,882.82155 244.896909,881.409821 C245.915791,880.922438 245.821255,879.617849 245.222531,878.878372 C243.846515,877.178835 244.151129,873.878498 243.947353,871.775609 C243.728871,869.515162 243.602824,867.275723 243.676351,865.008973 C254.375662,867.660167 265.01615,867.046737 275.961253,865.983738 C289.282346,864.689653 302.307228,863.750601 315.695547,863.574135 C328.96412,863.401871 342.247399,865.258967 355.45505,866.330368 C369.864351,867.502608 384.490033,867.485802 398.794295,869.74835 C398.855218,869.756753 398.907737,869.754652 398.964459,869.758854 C398.962358,869.93742 398.960257,870.111786 398.949753,870.250438 C398.693457,874.187313 398.504386,878.128391 398.229183,882.065266 C398.159857,883.050536 399.098909,883.855137 400.025356,883.86354 C404.166008,883.897153 408.298257,883.4896 412.443111,883.544221 C412.518739,883.546322 412.57336,883.51481 412.642686,883.506407 C411.062894,893.556574 411.775061,904.205465 411.871697,914.291346 C412.006147,928.284691 412.277149,942.275935 412.485127,956.269281 C412.880075,982.932475 413.573335,1009.56836 413.844336,1036.22945 C413.58804,1036.04878 413.285527,1035.91433 412.884276,1035.91644 C408.768834,1035.94375 404.743725,1035.59081 400.699709,1034.80512 C399.750153,1034.62025 398.64724,1035.05931 398.418254,1036.1013 C397.241813,1041.44571 396.813252,1047.32581 397.239712,1052.86979 C370.616433,1055.00839 343.50367,1052.43703 316.87829,1052.22275 C303.010992,1052.11141 289.137392,1052.15342 275.272195,1051.92444 C268.339596,1051.80889 261.409098,1051.69335 254.474399,1051.65133 C252.642512,1051.64083 244.68683,1053.10718 245.16791,1048.82157 C245.602773,1044.93722 245.281353,1040.81337 244.82128,1036.8828 C246.199397,1036.20004 245.964109,1033.87657 244.109113,1033.76313 C238.075652,1033.39339 231.603126,1034.06354 225.601176,1034.73369 C224.725148,1034.83033 224.725148,1035.99837 225.601176,1036.0971 C231.397249,1036.74415 237.621882,1037.37018 243.474676,1037.08027 C243.260395,1042.14107 243.197372,1047.22918 243.373838,1052.28367 C243.388543,1052.68072 243.684754,1052.96853 244.077602,1052.98533 C269.501331,1054.15127 294.891448,1055.46846 320.34669,1055.92644 C345.974196,1056.39071 371.927324,1053.93489 397.548528,1055.53149 C397.798522,1056.25836 398.613627,1056.9012 399.374112,1056.33189 L400.493832,1056.30458 C400.710213,1056.3676 400.800547,1056.08399 400.636685,1055.96635 C400.531646,1055.88862 400.441312,1055.77938 400.363583,1055.65333 C402.056818,1055.47477 401.966484,1052.46224 400.105186,1052.6345 C400.065271,1052.6387 400.025356,1052.6408 399.987542,1052.64501 C400.117791,1050.39716 400.697608,1047.69975 400.817353,1046.60524 C401.105161,1043.96245 401.485404,1041.33016 401.806824,1038.69158 C405.479001,1039.21047 409.153278,1039.45206 412.884276,1039.34702 C413.945174,1039.31551 414.485076,1038.51511 414.524991,1037.6958 C415.157328,1037.92059 416.006046,1037.60127 415.999744,1036.72944 C415.814875,1009.90659 416.052264,983.094236 415.861092,956.269281" id="frame"></path>
        </g>
    </g>
</svg>