<?xml version="1.0" encoding="UTF-8" standalone="no"?>
<svg width="1440px" height="336px" viewBox="0 0 1440 336" version="1.1" xmlns="http://www.w3.org/2000/svg" xmlns:xlink="http://www.w3.org/1999/xlink">
    <!-- Generator: Sketch 3.8.2 (29753) - http://www.bohemiancoding.com/sketch -->
    <title>hills</title>
    <desc>Created with Sketch.</desc>
    <defs></defs>
    <g id="Page-1" stroke="none" stroke-width="1" fill="none" fill-rule="evenodd">
        <g id="Landing-White" transform="translate(0.000000, -691.000000)" fill="#FFFFFF">
            <path d="M1055.4447,757.715 C1055.4017,757.496 1055.3397,757.301 1055.2617,757.128 C1055.6267,757.089 1055.9897,757.049 1056.3637,757.012 C1056.0367,757.25 1055.7337,757.484 1055.4447,757.715 M852.1767,996.933 C852.8627,996.372 853.6867,996.011 854.2717,996.706 C854.3577,996.809 854.4467,996.903 854.5337,997.003 C853.7477,996.961 852.9627,996.934 852.1767,996.933 M-232.1053,830.291 C-232.1763,830.25 -232.2473,830.207 -232.3153,830.171 C-232.2143,830.122 -232.1193,830.07 -232.0133,830.023 C-232.0483,830.113 -232.0723,830.201 -232.1053,830.291 M923.4107,901.146 C923.4137,901.314 923.4177,901.482 923.4217,901.65 C923.3707,901.487 923.3247,901.32 923.2767,901.155 C923.3217,901.151 923.3657,901.151 923.4107,901.146 M971.1897,862.506 C973.0477,862.324 974.6367,862.974 976.0697,864.056 C974.5617,863.468 972.9407,862.973 971.1897,862.506 M591.3537,1001.001 C591.3527,1000.99 591.3507,1000.98 591.3497,1000.97 L591.3497,1000.97 C591.3597,1000.972 591.3697,1000.975 591.3797,1000.978 C591.3717,1000.986 591.3617,1000.992 591.3537,1001.001 M206.2017,1009.944 C205.1097,1010.023 204.0187,1010.115 202.9287,1010.221 C204.0267,1009.917 205.1967,1009.868 206.2017,1009.944 M-243.7823,858.575 C-243.7173,858.458 -243.6683,858.349 -243.5973,858.228 C-243.4773,858.37 -243.3673,858.501 -243.2483,858.642 C-243.4233,858.604 -243.6013,858.58 -243.7823,858.575 M198.1037,1026.683 C409.7727,1026.689 621.4427,1026.725 833.1117,1026.664 C974.2237,1026.624 1115.3357,1026.371 1256.4487,1026.333 C1387.1067,1026.299 1517.7667,1026.451 1648.4247,1026.465 C1702.6167,1026.47 1756.8077,1026.27 1810.9987,1026.344 C1816.5477,1026.351 1819.7707,1026.043 1819.6087,1018.876 C1819.0827,995.464 1819.3087,972.035 1819.2457,948.613 L1819.2457,948.613 L1819.3257,912.872 C1819.3917,896.503 1819.4357,880.133 1819.5417,863.764 C1819.5617,860.738 1818.8887,858.449 1815.8957,856.82 C1808.2497,852.656 1801.0367,847.624 1793.1847,843.927 C1776.6517,836.142 1760.7027,827.338 1744.9907,818.059 C1741.3077,815.351 1737.7627,812.401 1733.1557,811.313 L1733.1557,811.313 C1723.2487,806.806 1713.1527,802.732 1704.6817,795.521 C1699.8047,791.369 1694.3307,787.92 1689.1247,784.155 L1689.1247,784.155 L1689.1247,784.155 C1688.1827,783.149 1687.4157,781.839 1686.2727,781.18 C1660.9707,766.588 1636.9727,749.873 1608.2877,741.367 C1581.7447,733.496 1555.4287,726.433 1527.4777,728.242 C1523.7427,728.483 1520.3767,727.458 1516.8557,726.193 C1499.3947,719.916 1482.7227,722.578 1468.2077,733.544 C1450.5477,746.886 1440.7407,766.218 1431.8417,785.929 C1431.8427,785.928 1431.8427,785.928 1431.8437,785.927 L1431.8437,785.929 C1423.2157,799.46 1412.1657,811.031 1401.7107,823.077 C1393.2637,832.808 1380.5247,832.28 1371.8687,822.509 C1365.9467,815.824 1360.9797,808.218 1353.6697,802.807 C1347.7017,793.131 1341.4607,783.363 1332.4157,776.533 C1324.3857,770.468 1317.1247,763.679 1309.6417,757.069 C1302.7617,742.83 1288.2597,735.425 1279.2047,723.136 C1277.7737,715.546 1271.0797,711.825 1266.3657,707.011 C1259.0937,699.583 1251.7427,691.146 1239.8807,691.034 C1230.3617,690.944 1220.8977,690.904 1211.3857,692.619 C1184.6317,697.442 1160.2627,708.142 1136.8757,721.508 L1136.8767,721.508 L1136.8767,721.508 C1130.9787,725.706 1123.3977,727.792 1119.9157,735.023 C1117.6827,736.776 1115.4487,738.53 1113.2157,740.283 C1106.8407,741.413 1101.2507,745.496 1094.5107,745.246 L1094.5107,745.246 L1094.5107,745.246 C1092.0237,745.9 1090.6987,748.876 1087.7587,748.626 C1082.1187,749.767 1076.4897,750.96 1070.8377,752.037 C1060.6157,753.984 1050.3847,755.886 1040.1557,757.797 C1038.4617,757.771 1036.7887,757.905 1035.1857,758.726 C1029.6077,759.305 1024.0417,760.159 1018.4477,760.415 C994.0007,761.534 969.8707,765.117 946.0447,770.419 C919.4887,776.329 892.3747,779.155 865.9397,785.789 C848.8517,790.077 831.5767,793.593 814.8797,799.336 L814.8747,799.336 C795.5887,803.014 776.3097,806.727 757.0147,810.356 C742.9497,813.002 728.9057,817.418 714.7787,817.735 C683.8037,818.431 652.7847,817.785 621.7687,816.96 C584.0197,815.955 546.3257,813.89 508.5907,812.798 C507.5107,812.399 506.4997,812.183 505.5397,812.107 C496.9947,810.263 488.3487,809.332 479.5717,809.579 C465.1777,809.304 452.9237,803.917 442.5377,794.07 L442.5357,794.07 C441.2697,790.628 439.6967,786.235 435.9727,786.236 C428.3387,786.237 423.2587,780.634 416.5487,778.927 C411.8417,777.73 408.4127,772.827 402.6847,774.464 C392.2277,777.454 382.2297,776.248 372.8417,770.621 L372.8417,770.621 C361.0517,764.086 348.1947,759.444 337.4127,751.144 C330.1677,745.567 320.9317,742.732 315.2757,735.001 C310.1787,723.595 300.3947,715.613 293.6567,705.394 C286.8787,695.116 266.5117,689.656 255.7197,695.792 C236.2917,706.837 218.3857,720.094 201.7737,735.068 L201.7747,735.068 L201.7747,735.068 C177.2647,755.13 148.9537,767.485 118.9147,776.642 C106.6497,780.381 94.4067,784.523 83.1327,790.91 C83.1317,790.91 83.1307,790.91 83.1297,790.911 C71.9037,794.558 60.6887,798.235 49.4497,801.843 C35.3867,806.358 21.4157,808.697 8.2487,799.251 C1.0947,794.118 -7.3473,791.578 -14.9963,787.451 C-22.4483,782.054 -30.3563,777.179 -37.2553,771.15 C-51.3693,758.814 -65.0413,745.964 -78.6673,733.085 C-82.2093,729.738 -85.0353,729.706 -87.7073,733.382 C-91.1063,738.058 -95.5273,741.47 -100.3123,744.448 C-112.0303,751.743 -121.4473,761.767 -131.7903,770.693 C-134.2783,773.439 -136.2993,776.792 -140.4553,777.376 L-140.4553,777.376 C-146.2983,778.566 -148.7683,783.673 -152.2843,787.564 L-152.2843,787.564 C-159.8213,794.705 -167.8823,802.062 -177.3613,805.369 C-186.8373,808.676 -196.6353,811.676 -205.7613,815.656 C-214.9403,819.659 -224.9563,821.357 -233.6283,826.486 C-233.6283,826.485 -233.6283,826.485 -233.6293,826.485 C-254.5903,832.17 -275.4823,838.062 -296.6893,842.869 C-324.6103,849.199 -352.4613,855.733 -381.0003,858.702 L-381.0003,875.643 L-381.0003,978.979 L-381.0003,1012.86 L-381.0003,1026.412 C-379.3103,1026.49 -377.6203,1026.635 -375.9303,1026.635 C-184.5853,1026.658 6.7587,1026.677 198.1037,1026.683" id="hills"></path>
        </g>
    </g>
</svg>