<?xml version="1.0" encoding="UTF-8" standalone="no"?>
<svg width="32px" height="32px" viewBox="0 0 32 32" version="1.1" xmlns="http://www.w3.org/2000/svg" xmlns:xlink="http://www.w3.org/1999/xlink">
    <!-- Generator: Sketch 3.8.2 (29753) - http://www.bohemiancoding.com/sketch -->
    <title>icon-cal</title>
    <desc>Created with Sketch.</desc>
    <defs></defs>
    <g id="Page-1" stroke="none" stroke-width="1" fill="none" fill-rule="evenodd">
        <g id="Landing-White" transform="translate(-119.000000, -2202.000000)" fill="#000000">
            <path d="M135.001,2204 L139.668,2209 L149.001,2209 L149.001,2213 L121,2213 L121,2209 L130.329,2209 L135.001,2204 L135.001,2204 Z M131.697,2209 L138.3,2209 L135.001,2205.465 L131.697,2209 L131.697,2209 Z M149.001,2232 L121,2232 L121,2214 L149,2214 L149,2232 L149.001,2232 Z M144.001,2219 L146.001,2219 L146.001,2217 L144.001,2217 L144.001,2219 L144.001,2219 Z M139.001,2219 L141.001,2219 L141.001,2217 L139.001,2217 L139.001,2219 L139.001,2219 Z M134,2219 L136,2219 L136,2217 L134,2217 L134,2219 L134,2219 Z M129,2219 L131,2219 L131,2217 L129,2217 L129,2219 L129,2219 Z M124,2219 L126,2219 L126,2217 L124,2217 L124,2219 L124,2219 Z M138.001,2225 L142.001,2225 L142.001,2221 L138.001,2221 L138.001,2225 L138.001,2225 Z M144.001,2224 L146.001,2224 L146.001,2222 L144.001,2222 L144.001,2224 L144.001,2224 Z M134,2224 L136,2224 L136,2222 L134,2222 L134,2224 L134,2224 Z M129,2224 L131,2224 L131,2222 L129,2222 L129,2224 L129,2224 Z M124,2224 L126,2224 L126,2222 L124,2222 L124,2224 L124,2224 Z M134,2229 L136,2229 L136,2227 L134,2227 L134,2229 L134,2229 Z M129,2229 L131,2229 L131,2227 L129,2227 L129,2229 L129,2229 Z M124,2229 L126,2229 L126,2227 L124,2227 L124,2229 L124,2229 Z M141.001,2224 L139.001,2224 L139.001,2222 L141.001,2222 L141.001,2224 L141.001,2224 Z M135.001,2202 C134.446,2202 133.918,2202.23 133.54,2202.635 L129.46,2207 L121,2207 C119.896,2207 119,2207.896 119,2209 L119,2232 C119,2233.104 119.895,2234 121,2234 L149,2234 C150.104,2234 151,2233.104 151,2232 L151,2209 C151,2207.896 150.104,2207 149,2207 L140.535,2207 L136.462,2202.635 C136.085,2202.23 135.556,2202 135.001,2202 L135.001,2202 Z" id="icon-cal"></path>
        </g>
    </g>
</svg>