<?xml version="1.0" encoding="UTF-8" standalone="no"?>
<svg width="32px" height="32px" viewBox="0 0 32 32" version="1.1" xmlns="http://www.w3.org/2000/svg" xmlns:xlink="http://www.w3.org/1999/xlink">
    <!-- Generator: Sketch 3.8.2 (29753) - http://www.bohemiancoding.com/sketch -->
    <title>icon-map</title>
    <desc>Created with Sketch.</desc>
    <defs></defs>
    <g id="Page-1" stroke="none" stroke-width="1" fill="none" fill-rule="evenodd">
        <g id="Landing-White" transform="translate(-109.000000, -2682.000000)" fill="#000000">
            <path d="M139.813,2686.172 L130.811,2682.172 C130.554,2682.058 130.277,2682 130,2682 C129.748,2682 129.496,2682.047 129.257,2682.143 L120.041,2685.83 L111.813,2682.172 C111.553,2682.057 111.276,2682 111,2682 C110.619,2682 110.24,2682.109 109.91,2682.323 C109.342,2682.692 109,2683.323 109,2684 L109,2707.397 C109,2708.148 109.421,2708.835 110.089,2709.177 L119.089,2713.781 C119.375,2713.926 119.687,2714 120,2714 C120.252,2714 120.504,2713.953 120.743,2713.857 L129.959,2710.169 L138.188,2713.827 C138.447,2713.943 138.724,2714 139,2714 C139.382,2714 139.761,2713.891 140.091,2713.677 C140.657,2713.308 140.999,2712.677 140.999,2712 L140.999,2688 C140.999,2687.209 140.534,2686.493 139.813,2686.172 L139.813,2686.172 Z M129,2684.4 L129,2708.4 L121,2711.6 L121,2687.6 L129,2684.4 L129,2684.4 Z M111,2707.397 L111,2684 L120,2688 L120,2712 L111,2707.397 L111,2707.397 Z M139,2712 L130,2708 L130,2684 L139,2688 L139,2712 L139,2712 Z" id="icon-map"></path>
        </g>
    </g>
</svg>